<?xml version="1.0" encoding="UTF-8"?>
<svg id="Camada_1" xmlns="http://www.w3.org/2000/svg" version="1.1" xmlns:xlink="http://www.w3.org/1999/xlink" viewBox="0 0 300 93.78">
  <!-- Generator: Adobe Illustrator 30.2.1, SVG Export Plug-In . SVG Version: 2.1.1 Build 1)  -->
  <defs>
    <style>
      .st0 {
        fill: url(#GradientFill_34);
        stroke: url(#Gradiente_sem_nome_144);
      }

      .st0, .st1, .st2, .st3, .st4, .st5, .st6, .st7, .st8, .st9, .st10, .st11, .st12, .st13 {
        stroke-miterlimit: 10;
        stroke-width: .68px;
      }

      .st1 {
        fill: url(#GradientFill_32);
        stroke: url(#Gradiente_sem_nome_142);
      }

      .st2 {
        fill: url(#GradientFill_51);
        stroke: url(#Gradiente_sem_nome_131);
      }

      .st3 {
        fill: url(#GradientFill_52);
        stroke: url(#Gradiente_sem_nome_132);
      }

      .st4 {
        fill: url(#GradientFill_5);
        stroke: url(#Gradiente_sem_nome_13);
      }

      .st5 {
        fill: url(#GradientFill_33);
        stroke: url(#Gradiente_sem_nome_143);
      }

      .st6 {
        fill: url(#GradientFill_55);
        stroke: url(#Gradiente_sem_nome_135);
      }

      .st7 {
        fill: url(#GradientFill_31);
        stroke: url(#Gradiente_sem_nome_141);
      }

      .st8 {
        fill: url(#GradientFill_3);
        stroke: url(#Gradiente_sem_nome_14);
      }

      .st9 {
        fill: url(#GradientFill_35);
        stroke: url(#Gradiente_sem_nome_145);
      }

      .st10 {
        fill: url(#GradientFill_53);
        stroke: url(#Gradiente_sem_nome_133);
      }

      .st11 {
        fill: url(#GradientFill_37);
        stroke: url(#Gradiente_sem_nome_147);
      }

      .st12 {
        fill: url(#GradientFill_36);
        stroke: url(#Gradiente_sem_nome_146);
      }

      .st13 {
        fill: url(#GradientFill_54);
        stroke: url(#Gradiente_sem_nome_134);
      }
    </style>
    <linearGradient id="GradientFill_5" data-name="GradientFill 5" x1="27.12" y1="83.74" x2="27.12" y2="40.68" gradientUnits="userSpaceOnUse">
      <stop offset="0" stop-color="#292265"/>
      <stop offset="1" stop-color="#009cdf"/>
    </linearGradient>
    <linearGradient id="Gradiente_sem_nome_13" data-name="Gradiente sem nome 13" x1="6.63" y1="60.24" x2="47.59" y2="60.24" gradientUnits="userSpaceOnUse">
      <stop offset="0" stop-color="#292265"/>
      <stop offset="1" stop-color="#009cdf"/>
    </linearGradient>
    <linearGradient id="GradientFill_3" data-name="GradientFill 3" x1="54.73" y1="75.28" x2="63.59" y2="26.14" gradientUnits="userSpaceOnUse">
      <stop offset="0" stop-color="#84160e"/>
      <stop offset="1" stop-color="#c10d19"/>
    </linearGradient>
    <linearGradient id="Gradiente_sem_nome_14" data-name="Gradiente sem nome 14" x1="20.16" y1="58.01" x2="89.43" y2="58.01" gradientUnits="userSpaceOnUse">
      <stop offset="0" stop-color="#84160e"/>
      <stop offset="1" stop-color="#c10d19"/>
    </linearGradient>
    <linearGradient id="GradientFill_31" data-name="GradientFill 3" x1="96.25" y1="82.76" x2="105.11" y2="33.63" xlink:href="#GradientFill_3"/>
    <linearGradient id="Gradiente_sem_nome_141" data-name="Gradiente sem nome 14" x1="83.3" y1="39.91" x2="127.88" y2="39.91" xlink:href="#Gradiente_sem_nome_14"/>
    <linearGradient id="GradientFill_32" data-name="GradientFill 3" x1="94.12" y1="82.38" x2="102.98" y2="33.25" xlink:href="#GradientFill_3"/>
    <linearGradient id="Gradiente_sem_nome_142" data-name="Gradiente sem nome 14" x1="74.16" y1="76.14" x2="113.81" y2="76.14" xlink:href="#Gradiente_sem_nome_14"/>
    <linearGradient id="GradientFill_51" data-name="GradientFill 5" x1="115.63" y1="83.74" x2="115.63" y2="40.68" xlink:href="#GradientFill_5"/>
    <linearGradient id="Gradiente_sem_nome_131" data-name="Gradiente sem nome 13" x1="94.07" x2="137.11" xlink:href="#Gradiente_sem_nome_13"/>
    <linearGradient id="GradientFill_52" data-name="GradientFill 5" x1="153.54" y1="83.74" x2="153.54" y2="40.68" xlink:href="#GradientFill_5"/>
    <linearGradient id="Gradiente_sem_nome_132" data-name="Gradiente sem nome 13" x1="131.69" x2="175.31" xlink:href="#Gradiente_sem_nome_13"/>
    <linearGradient id="GradientFill_53" data-name="GradientFill 5" x1="190.25" y1="83.74" x2="190.25" y2="40.68" xlink:href="#GradientFill_5"/>
    <linearGradient id="Gradiente_sem_nome_133" data-name="Gradiente sem nome 13" x1="169.77" x2="210.73" xlink:href="#Gradiente_sem_nome_13"/>
    <linearGradient id="GradientFill_54" data-name="GradientFill 5" x1="226.77" y1="83.74" x2="226.77" y2="40.68" xlink:href="#GradientFill_5"/>
    <linearGradient id="Gradiente_sem_nome_134" data-name="Gradiente sem nome 13" x1="206.68" y1="60.24" x2="246.86" y2="60.24" xlink:href="#Gradiente_sem_nome_13"/>
    <linearGradient id="GradientFill_55" data-name="GradientFill 5" x1="265.88" y1="83.74" x2="265.88" y2="40.68" xlink:href="#GradientFill_5"/>
    <linearGradient id="Gradiente_sem_nome_135" data-name="Gradiente sem nome 13" x1="245.79" y1="60.24" x2="285.96" y2="60.24" xlink:href="#Gradiente_sem_nome_13"/>
    <linearGradient id="GradientFill_33" data-name="GradientFill 3" x1="137.35" y1="90.18" x2="146.21" y2="41.04" xlink:href="#GradientFill_3"/>
    <linearGradient id="Gradiente_sem_nome_143" data-name="Gradiente sem nome 14" x1="134.61" y1="18.29" x2="161.92" y2="18.29" xlink:href="#Gradiente_sem_nome_14"/>
    <linearGradient id="GradientFill_34" data-name="GradientFill 3" x1="165.67" y1="95.28" x2="174.53" y2="46.15" xlink:href="#GradientFill_3"/>
    <linearGradient id="Gradiente_sem_nome_144" data-name="Gradiente sem nome 14" x1="162.8" y1="18.29" x2="196.21" y2="18.29" xlink:href="#Gradiente_sem_nome_14"/>
    <linearGradient id="GradientFill_35" data-name="GradientFill 3" x1="198.92" y1="101.28" x2="207.78" y2="52.15" xlink:href="#GradientFill_3"/>
    <linearGradient id="Gradiente_sem_nome_145" data-name="Gradiente sem nome 14" x1="195.67" y1="18.29" x2="232.1" y2="18.29" xlink:href="#Gradiente_sem_nome_14"/>
    <linearGradient id="GradientFill_36" data-name="GradientFill 3" x1="231.08" y1="107.08" x2="239.94" y2="57.95" xlink:href="#GradientFill_3"/>
    <linearGradient id="Gradiente_sem_nome_146" data-name="Gradiente sem nome 14" x1="227.43" y1="18.29" x2="261.01" y2="18.29" xlink:href="#Gradiente_sem_nome_14"/>
    <linearGradient id="GradientFill_37" data-name="GradientFill 3" x1="262.35" y1="112.72" x2="271.21" y2="63.59" xlink:href="#GradientFill_3"/>
    <linearGradient id="Gradiente_sem_nome_147" data-name="Gradiente sem nome 14" x1="263.26" y1="18.29" x2="294.34" y2="18.29" xlink:href="#Gradiente_sem_nome_14"/>
  </defs>
  <path class="st4" d="M41.18,65.31h-16.42l-1.05,4.83h18.99l-3.73,10.19H7.05l8.5-40.18h31.62l-2.1,10.19h-17.06l-1.05,4.78h16.42l-2.21,10.19Z"/>
  <g>
    <polygon class="st8" points="51.22 89.09 21.1 89.05 58.79 58.12 34.46 26.94 64.61 26.92 88.96 58.13 51.22 89.09"/>
    <polygon class="st7" points="95.56 52.73 83.77 37.66 96.8 26.95 126.93 26.98 95.56 52.73"/>
    <polygon class="st1" points="82.99 89.09 74.63 78.42 93.03 63.32 113.11 89.06 82.99 89.09"/>
  </g>
  <g>
    <path class="st2" d="M102.99,40.15h18.87c10.42,0,14.91,5.53,14.91,11.88,0,8.56-6.47,14.68-17.76,14.68h-6.87l-2.8,13.63h-14.85l8.5-40.18ZM114.17,57.45h2.39c3.15,0,4.89-1.69,4.89-4.89,0-2.1-.99-3.2-3.55-3.2h-1.92l-1.81,8.1Z"/>
    <path class="st3" d="M150.16,65.89l-2.97,14.44h-15.08l8.5-40.18h20.15c10.19,0,14.21,4.89,14.21,10.31s-3.26,9.26-8.56,10.83c3.44,1.28,5.13,4.78,3.84,10.77-.7,3.2-1.34,6.87-1.34,8.27h-14.5c-.23-1.69.12-4.48,1.11-9.2.7-3.26.7-5.24-3.2-5.24h-2.16ZM152.2,56.8h2.62c3.03,0,4.89-1.51,4.89-4.43,0-1.69-.81-3.14-3.26-3.14h-2.68l-1.57,7.57Z"/>
    <path class="st10" d="M204.31,65.31h-16.42l-1.05,4.83h18.99l-3.73,10.19h-31.91l8.5-40.18h31.62l-2.1,10.19h-17.06l-1.05,4.78h16.42l-2.21,10.19Z"/>
    <path class="st13" d="M221.41,67.64c.23,2.33,1.57,4.08,4.31,4.08,1.81,0,3.43-.7,3.43-2.68,0-1.86-1.57-2.74-5.71-4.02-9.03-2.8-12.99-6-12.99-11.76,0-8.62,6.64-14.15,18.11-14.15,10.54,0,17.88,4.19,17.94,12.93h-14.33c0-1.46-.64-3.32-3.49-3.32-1.92,0-2.8.93-2.8,2.27,0,1.51,1.81,2.45,6.06,3.67,10.54,3.09,13.22,7.34,13.22,12.58,0,9.9-8.8,14.15-19.68,14.15-12.64,0-18.23-5.42-18.46-13.74h14.39Z"/>
    <path class="st6" d="M260.52,67.64c.23,2.33,1.57,4.08,4.31,4.08,1.81,0,3.43-.7,3.43-2.68,0-1.86-1.57-2.74-5.71-4.02-9.03-2.8-12.99-6-12.99-11.76,0-8.62,6.64-14.15,18.11-14.15,10.54,0,17.88,4.19,17.94,12.93h-14.33c0-1.46-.64-3.32-3.49-3.32-1.92,0-2.8.93-2.8,2.27,0,1.51,1.81,2.45,6.06,3.67,10.54,3.09,13.22,7.34,13.22,12.58,0,9.9-8.8,14.15-19.68,14.15-12.64,0-18.23-5.42-18.46-13.74h14.39Z"/>
  </g>
  <g>
    <path class="st5" d="M141.58,2.83h11.84l-4.89,23.09h12.91l-2.91,7.85h-23.49l6.55-30.93Z"/>
    <path class="st0" d="M195.87,15.47c0,8.61-4.62,19.1-18.69,19.1-10.31,0-14.03-6.32-14.03-13,0-9.41,5.69-19.55,18.43-19.55,9.86,0,14.3,6.05,14.3,13.45ZM175.24,22.51c0,2.15.49,4.35,2.96,4.35,4.53,0,5.83-9.73,5.83-12.73,0-1.93-.36-4.39-2.91-4.39-4.39,0-5.87,9.41-5.87,12.78Z"/>
    <path class="st9" d="M196.09,33.76l6.55-30.93h13.67c.63,8.34.85,13.09,1.17,17.53h.22c.49-3.5,1.52-9.82,2.51-14.48l.63-3.05h10.85l-6.55,30.93h-13.09c-.54-5.96-1.17-13.45-1.48-18.34h-.18c-.36,3.63-1.57,9.37-2.69,14.66l-.76,3.68h-10.85Z"/>
    <path class="st12" d="M242.18,28.11l-2.11,5.65h-12.1l14.79-30.93h15.87l2.02,30.93h-11.79v-5.65h-6.68ZM248.99,20.27c0-2.02-.04-6.72-.04-9.55h-.27c-1.26,3.86-2.33,6.59-3.45,9.55h3.77Z"/>
    <path class="st11" d="M274.68,23.99c.18,1.79,1.21,3.14,3.32,3.14,1.39,0,2.65-.54,2.65-2.06,0-1.43-1.21-2.11-4.39-3.09-6.95-2.15-10-4.62-10-9.06,0-6.64,5.11-10.89,13.94-10.89,8.11,0,13.76,3.23,13.81,9.95h-11.03c0-1.12-.49-2.56-2.69-2.56-1.48,0-2.15.72-2.15,1.75,0,1.17,1.39,1.88,4.66,2.82,8.11,2.38,10.18,5.65,10.18,9.68,0,7.62-6.77,10.89-15.15,10.89-9.73,0-14.03-4.17-14.21-10.58h11.07Z"/>
  </g>
</svg>